<svg width="120" height="40" viewBox="0 0 120 40" fill="none" xmlns="http://www.w3.org/2000/svg">
<g clip-path="url(#clip0_2869_11506)">
<path d="M110.135 0.00013H9.53468C9.16798 0.00013 8.80568 0.00013 8.43995 0.00213C8.1338 0.00413 7.83009 0.00994 7.521 0.01483C6.84951 0.0227318 6.17961 0.0818063 5.5171 0.19154C4.85552 0.303663 4.21467 0.515046 3.61622 0.81854C3.0185 1.1246 2.47235 1.5223 1.99757 1.9972C1.5203 2.47077 1.12246 3.01815 0.81935 3.61829C0.5154 4.21724 0.304641 4.85907 0.19435 5.52161C0.0830109 6.18332 0.0230984 6.85265 0.01515 7.52361C0.00587 7.83021 0.00489 8.13783 0 8.44447V31.5587C0.00489 31.8692 0.00587 32.17 0.01515 32.4806C0.0231008 33.1516 0.0830134 33.8209 0.19435 34.4825C0.304336 35.1455 0.515108 35.7877 0.81935 36.3868C1.12233 36.985 1.52022 37.5302 1.99757 38.0011C2.47054 38.4781 3.01705 38.8761 3.61622 39.1798C4.21467 39.4841 4.85545 39.6968 5.5171 39.8106C6.17972 39.9195 6.84956 39.9786 7.521 39.9874C7.83009 39.9942 8.1338 39.9981 8.43995 39.9981C8.80567 40.0001 9.168 40.0001 9.53468 40.0001H110.135C110.494 40.0001 110.859 40.0001 111.219 39.9981C111.523 39.9981 111.836 39.9942 112.141 39.9874C112.811 39.9791 113.479 39.92 114.141 39.8106C114.804 39.696 115.448 39.4834 116.049 39.1798C116.647 38.8759 117.193 38.478 117.666 38.0011C118.142 37.5284 118.541 36.9836 118.848 36.3868C119.15 35.7872 119.358 35.1451 119.467 34.4825C119.578 33.8208 119.64 33.1516 119.652 32.4806C119.656 32.17 119.656 31.8692 119.656 31.5587C119.664 31.1954 119.664 30.8341 119.664 30.4649V9.53626C119.664 9.17005 119.664 8.80677 119.656 8.44447C119.656 8.13783 119.656 7.83021 119.652 7.52357C119.64 6.85255 119.578 6.18337 119.467 5.52157C119.358 4.85941 119.149 4.21763 118.848 3.61825C118.23 2.41533 117.252 1.43616 116.049 0.81845C115.448 0.515697 114.804 0.30437 114.141 0.19145C113.48 0.0812328 112.811 0.0221378 112.141 0.01469C111.836 0.00981 111.523 0.00395 111.219 0.002C110.859 0 110.494 0.00013 110.135 0.00013Z" fill="#A6A6A6"/>
<path d="M8.44487 39.125C8.14019 39.125 7.84287 39.1211 7.54058 39.1143C6.91436 39.1061 6.2896 39.0516 5.67144 38.9512C5.09503 38.8519 4.53664 38.6673 4.0147 38.4033C3.49754 38.1415 3.02585 37.7983 2.6177 37.3867C2.20364 36.98 1.85891 36.5082 1.59719 35.9902C1.33258 35.4688 1.14945 34.9099 1.05419 34.333C0.951311 33.7131 0.895651 33.0863 0.887687 32.458C0.881347 32.2471 0.873047 31.5449 0.873047 31.5449V8.44434C0.873047 8.44434 0.881887 7.75293 0.887737 7.5498C0.895363 6.92248 0.950699 6.29665 1.05327 5.67773C1.14871 5.09925 1.33197 4.53875 1.59673 4.01563C1.85749 3.49794 2.2003 3.02586 2.61187 2.61768C3.02297 2.20562 3.49617 1.8606 4.01421 1.59521C4.53495 1.33209 5.09228 1.14873 5.66753 1.05127C6.28772 0.949836 6.91465 0.894996 7.54304 0.88721L8.44536 0.875H111.214L112.127 0.8877C112.75 0.895099 113.371 0.94945 113.985 1.05029C114.566 1.14898 115.13 1.33362 115.656 1.59814C116.694 2.13299 117.539 2.97916 118.071 4.01807C118.332 4.53758 118.512 5.09351 118.607 5.66699C118.71 6.29099 118.768 6.92174 118.78 7.5542C118.783 7.8374 118.783 8.1416 118.783 8.44434C118.791 8.81934 118.791 9.17627 118.791 9.53613V30.4648C118.791 30.8281 118.791 31.1826 118.783 31.54C118.783 31.8652 118.783 32.1631 118.779 32.4697C118.768 33.0909 118.711 33.7104 118.608 34.3232C118.515 34.9043 118.333 35.4675 118.068 35.9932C117.805 36.5056 117.462 36.9733 117.053 37.3789C116.644 37.7927 116.172 38.1379 115.653 38.4014C115.128 38.6674 114.566 38.8527 113.985 38.9512C113.367 39.0522 112.742 39.1067 112.116 39.1143C111.823 39.1211 111.517 39.125 111.219 39.125L110.135 39.127L8.44487 39.125Z" fill="black"/>
<path d="M24.7689 20.3006C24.7796 19.4659 25.0013 18.6475 25.4134 17.9216C25.8254 17.1956 26.4143 16.5857 27.1254 16.1485C26.6737 15.5034 26.0777 14.9724 25.3849 14.5979C24.6921 14.2233 23.9215 14.0155 23.1343 13.9908C21.455 13.8146 19.8271 14.9957 18.9714 14.9957C18.0991 14.9957 16.7816 14.0083 15.3629 14.0375C14.4452 14.0672 13.5509 14.334 12.767 14.8121C11.9831 15.2901 11.3364 15.9631 10.89 16.7654C8.95595 20.1138 10.3985 25.0349 12.2511 27.7415C13.178 29.0668 14.2613 30.5473 15.6788 30.4948C17.0658 30.4372 17.5839 29.6103 19.2582 29.6103C20.9169 29.6103 21.403 30.4948 22.8492 30.4614C24.3376 30.4372 25.2753 29.1302 26.1697 27.7923C26.8357 26.8479 27.3481 25.8042 27.6881 24.6997C26.8234 24.334 26.0855 23.7218 25.5664 22.9395C25.0472 22.1572 24.7699 21.2394 24.7689 20.3006Z" fill="white"/>
<path d="M22.0372 12.2108C22.8487 11.2366 23.2485 9.98445 23.1517 8.72021C21.9119 8.85044 20.7666 9.44299 19.9441 10.3798C19.542 10.8375 19.234 11.3699 19.0378 11.9467C18.8415 12.5235 18.7609 13.1333 18.8004 13.7412C19.4206 13.7476 20.0341 13.6132 20.5947 13.3481C21.1554 13.083 21.6486 12.6942 22.0372 12.2108Z" fill="white"/>
<path d="M42.3022 27.1396H37.5688L36.4321 30.496H34.4272L38.9106 18.078H40.9936L45.477 30.496H43.438L42.3022 27.1396ZM38.0591 25.5907H41.8111L39.9615 20.1435H39.9097L38.0591 25.5907Z" fill="white"/>
<path d="M55.1597 25.9697C55.1597 28.7832 53.6538 30.5908 51.3814 30.5908C50.8057 30.6209 50.2332 30.4883 49.7294 30.2082C49.2256 29.928 48.8109 29.5117 48.5327 29.0068H48.4897V33.4912H46.6313V21.4423H48.4302V22.9482H48.4644C48.7553 22.4457 49.1771 22.0316 49.6847 21.7497C50.1923 21.4679 50.7669 21.3289 51.3472 21.3476C53.645 21.3476 55.1597 23.164 55.1597 25.9697ZM53.2495 25.9697C53.2495 24.1367 52.3023 22.9316 50.857 22.9316C49.437 22.9316 48.482 24.1621 48.482 25.9697C48.482 27.7939 49.437 29.0156 50.857 29.0156C52.3023 29.0156 53.2495 27.8193 53.2495 25.9697Z" fill="white"/>
<path d="M65.1245 25.9697C65.1245 28.7832 63.6186 30.5908 61.3462 30.5908C60.7705 30.6209 60.198 30.4883 59.6942 30.2081C59.1904 29.928 58.7757 29.5117 58.4975 29.0068H58.4545V33.4912H56.5961V21.4423H58.395V22.9482H58.4291C58.7201 22.4457 59.1418 22.0315 59.6494 21.7497C60.1571 21.4679 60.7316 21.3289 61.312 21.3476C63.6098 21.3476 65.1245 23.164 65.1245 25.9697ZM63.2143 25.9697C63.2143 24.1367 62.267 22.9316 60.8217 22.9316C59.4018 22.9316 58.4467 24.1621 58.4467 25.9697C58.4467 27.7939 59.4018 29.0156 60.8217 29.0156C62.2671 29.0156 63.2143 27.8193 63.2143 25.9697Z" fill="white"/>
<path d="M71.7105 27.0361C71.8482 28.2675 73.0445 29.0761 74.6792 29.0761C76.2456 29.0761 77.3726 28.2675 77.3726 27.1571C77.3726 26.1932 76.6929 25.6161 75.0835 25.2206L73.4742 24.8329C71.1939 24.2821 70.1353 23.2157 70.1353 21.4852C70.1353 19.3427 72.0025 17.871 74.6538 17.871C77.2778 17.871 79.0767 19.3427 79.1372 21.4852H77.2612C77.1489 20.246 76.1245 19.4979 74.6274 19.4979C73.1304 19.4979 72.106 20.2548 72.106 21.3563C72.106 22.2343 72.7603 22.7509 74.3608 23.1463L75.729 23.4823C78.2769 24.0848 79.3355 25.1083 79.3355 26.9247C79.3355 29.2479 77.4849 30.703 74.5415 30.703C71.7876 30.703 69.9282 29.2821 69.8081 27.036L71.7105 27.0361Z" fill="white"/>
<path d="M83.3462 19.2997V21.4423H85.0679V22.9139H83.3462V27.9052C83.3462 28.6805 83.6909 29.0419 84.4477 29.0419C84.6521 29.0383 84.8562 29.024 85.0591 28.9989V30.4618C84.7188 30.5253 84.3729 30.5541 84.0268 30.5477C82.1938 30.5477 81.479 29.8592 81.479 28.1034V22.9139H80.1626V21.4423H81.479V19.2997H83.3462Z" fill="white"/>
<path d="M86.065 25.9696C86.065 23.121 87.7427 21.3309 90.3589 21.3309C92.9839 21.3309 94.6539 23.1209 94.6539 25.9696C94.6539 28.8261 92.9927 30.6083 90.3589 30.6083C87.7261 30.6083 86.065 28.826 86.065 25.9696ZM92.7603 25.9696C92.7603 24.0155 91.8648 22.8622 90.3589 22.8622C88.8531 22.8622 87.9585 24.0243 87.9585 25.9696C87.9585 27.9315 88.8531 29.0761 90.3589 29.0761C91.8648 29.0761 92.7603 27.9315 92.7603 25.9696Z" fill="white"/>
<path d="M96.186 21.4423H97.9585V22.9833H98.0015C98.1214 22.502 98.4034 22.0766 98.8 21.7788C99.1966 21.4809 99.6836 21.3286 100.179 21.3475C100.393 21.3468 100.607 21.37 100.816 21.4169V23.1551C100.546 23.0725 100.264 23.0346 99.981 23.0428C99.711 23.0319 99.4418 23.0795 99.192 23.1824C98.9421 23.2853 98.7175 23.441 98.5335 23.6389C98.3496 23.8368 98.2106 24.0721 98.1262 24.3288C98.0417 24.5855 98.0139 24.8574 98.0444 25.1258V30.496H96.186L96.186 21.4423Z" fill="white"/>
<path d="M109.384 27.8368C109.134 29.4803 107.534 30.6083 105.486 30.6083C102.852 30.6083 101.217 28.8436 101.217 26.0126C101.217 23.1727 102.861 21.3309 105.408 21.3309C107.913 21.3309 109.488 23.0516 109.488 25.7968V26.4335H103.093V26.5458C103.064 26.879 103.105 27.2146 103.216 27.5305C103.326 27.8463 103.502 28.1351 103.732 28.3777C103.963 28.6202 104.242 28.811 104.552 28.9373C104.861 29.0636 105.195 29.1225 105.529 29.1102C105.968 29.1514 106.409 29.0497 106.785 28.8202C107.162 28.5908 107.455 28.2459 107.62 27.8368L109.384 27.8368ZM103.102 25.1346H107.628C107.645 24.835 107.6 24.5352 107.495 24.254C107.39 23.9728 107.229 23.7163 107.02 23.5005C106.812 23.2847 106.561 23.1144 106.283 23.0002C106.006 22.886 105.708 22.8303 105.408 22.8368C105.105 22.835 104.805 22.8931 104.525 23.0079C104.245 23.1226 103.99 23.2917 103.776 23.5053C103.562 23.7189 103.392 23.9729 103.276 24.2526C103.16 24.5322 103.101 24.832 103.102 25.1346Z" fill="white"/>
<path d="M35.4277 11.7163C35.4277 9.78124 36.457 8.58593 38.1152 8.58593C38.7129 8.55633 39.2998 8.75254 39.7595 9.13561C40.2192 9.51869 40.518 10.0606 40.5967 10.6538H39.6738C39.5964 10.3023 39.3979 9.98912 39.113 9.76911C38.8281 9.54909 38.4749 9.43621 38.1152 9.45019C37.0439 9.45019 36.374 10.3227 36.374 11.7163C36.374 13.1059 37.0439 13.978 38.1191 13.978C38.4657 14.004 38.8104 13.9084 39.0942 13.7077C39.3779 13.507 39.5829 13.2138 39.6738 12.8784H40.5967C40.5067 13.4575 40.2016 13.9813 39.7423 14.3453C39.2831 14.7094 38.7035 14.8868 38.1191 14.8423C36.461 14.8423 35.4277 13.6474 35.4277 11.7163Z" fill="white"/>
<path d="M41.6104 12.4443C41.5821 12.1484 41.6159 11.8498 41.7098 11.5677C41.8036 11.2857 41.9554 11.0263 42.1553 10.8063C42.3553 10.5864 42.599 10.4106 42.8708 10.2903C43.1427 10.17 43.4367 10.1079 43.7339 10.1079C44.0312 10.1079 44.3252 10.17 44.597 10.2903C44.8689 10.4106 45.1126 10.5864 45.3125 10.8063C45.5125 11.0263 45.6642 11.2857 45.7581 11.5677C45.8519 11.8498 45.8858 12.1484 45.8575 12.4443C45.8863 12.7405 45.8529 13.0395 45.7593 13.322C45.6657 13.6045 45.514 13.8644 45.314 14.0848C45.114 14.3052 44.8701 14.4813 44.598 14.6019C44.3259 14.7224 44.0315 14.7847 43.7339 14.7847C43.4363 14.7847 43.142 14.7224 42.8698 14.6019C42.5977 14.4813 42.3538 14.3052 42.1538 14.0848C41.9538 13.8644 41.8022 13.6045 41.7086 13.322C41.615 13.0395 41.5815 12.7405 41.6104 12.4443ZM44.9434 12.4443C44.9434 11.4682 44.5049 10.8974 43.7354 10.8974C42.9629 10.8974 42.5284 11.4682 42.5284 12.4443C42.5284 13.4282 42.963 13.9946 43.7354 13.9946C44.5049 13.9946 44.9434 13.4243 44.9434 12.4443Z" fill="white"/>
<path d="M47.0498 10.1949H47.9053V10.9102H47.9717C48.0843 10.6533 48.2743 10.4379 48.5152 10.2941C48.7561 10.1503 49.0358 10.0852 49.3154 10.1079C49.5345 10.0915 49.7545 10.1245 49.9591 10.2046C50.1637 10.2847 50.3477 10.4098 50.4974 10.5707C50.647 10.7315 50.7586 10.924 50.8238 11.1338C50.889 11.3436 50.9062 11.5654 50.874 11.7827V14.6977H49.9854V12.0059C49.9854 11.2823 49.6709 10.9224 49.0137 10.9224C48.8649 10.9155 48.7164 10.9408 48.5784 10.9966C48.4403 11.0525 48.316 11.1375 48.2138 11.2459C48.1117 11.3543 48.0342 11.4834 47.9867 11.6246C47.9392 11.7657 47.9227 11.9154 47.9385 12.0635V14.6978H47.0498V10.1949Z" fill="white"/>
<path d="M53.8945 10.1079C54.9072 10.1079 55.5693 10.5791 55.6562 11.373H54.8037C54.7217 11.0425 54.3984 10.8315 53.8945 10.8315C53.3984 10.8315 53.0215 11.0669 53.0215 11.4185C53.0215 11.6875 53.2491 11.8569 53.7373 11.9688L54.4853 12.1421C55.3418 12.3408 55.7432 12.709 55.7432 13.3706C55.7432 14.2183 54.9532 14.7847 53.8779 14.7847C52.8066 14.7847 52.1084 14.3008 52.0293 13.5029H52.919C52.9956 13.6928 53.1339 13.8515 53.3115 13.9534C53.4891 14.0553 53.6958 14.0946 53.8985 14.0649C54.4522 14.0649 54.8457 13.8169 54.8457 13.457C54.8457 13.1885 54.6348 13.0146 54.1836 12.9072L53.3985 12.7251C52.542 12.5224 52.1455 12.1382 52.1455 11.4683C52.1455 10.6699 52.877 10.1079 53.8945 10.1079Z" fill="white"/>
<path d="M56.8652 9.44189L57.9033 8.01953H58.9453L57.7832 9.44189H56.8652ZM56.957 10.1948H57.8418V14.6978H56.957V10.1948Z" fill="white"/>
<path d="M59.2256 15.1484H60.1348C60.21 15.4751 60.5859 15.686 61.1856 15.686C61.9258 15.686 62.3643 15.3344 62.3643 14.7392V13.875H62.2979C62.1585 14.1169 61.9549 14.3156 61.7097 14.4491C61.4644 14.5825 61.187 14.6456 60.9082 14.6313C59.7588 14.6313 59.0479 13.7426 59.0479 12.3945C59.0479 11.0215 59.7666 10.1201 60.917 10.1201C61.2028 10.1101 61.4859 10.1789 61.7353 10.3189C61.9846 10.459 62.1907 10.6648 62.3311 10.914H62.4014V10.1948H63.2529V14.7348C63.2529 15.7646 62.4463 16.4179 61.1728 16.4179C60.0479 16.418 59.3203 15.9135 59.2256 15.1484ZM62.3809 12.3901C62.3809 11.4931 61.917 10.9184 61.1602 10.9184C60.3955 10.9184 59.9658 11.4931 59.9658 12.3901C59.9658 13.2876 60.3955 13.8623 61.1602 13.8623C61.9219 13.8623 62.3809 13.292 62.3809 12.3901Z" fill="white"/>
<path d="M68.4653 14.6978H67.6089V13.9824H67.5386C67.4247 14.242 67.2321 14.4592 66.9879 14.6032C66.7437 14.7472 66.4605 14.8107 66.1782 14.7847C65.9604 14.8001 65.7419 14.7666 65.5387 14.6866C65.3356 14.6066 65.1529 14.4821 65.0041 14.3223C64.8554 14.1625 64.7443 13.9714 64.679 13.763C64.6137 13.5546 64.5959 13.3343 64.6269 13.1182V10.1948H65.5171V12.8867C65.5171 13.6143 65.8101 13.9619 66.4634 13.9619C66.6148 13.9763 66.7676 13.9567 66.9105 13.9045C67.0535 13.8523 67.183 13.7689 67.2895 13.6603C67.3961 13.5517 67.4771 13.4207 67.5266 13.2768C67.5761 13.1329 67.5929 12.9798 67.5757 12.8286V10.1948H68.4653V14.6978Z" fill="white"/>
<path d="M73.689 13.4819C73.5683 13.8934 73.3067 14.2494 72.95 14.4876C72.5933 14.7257 72.1642 14.8309 71.7378 14.7846C71.4412 14.7925 71.1464 14.7356 70.8738 14.6181C70.6013 14.5006 70.3577 14.3252 70.1598 14.104C69.9619 13.8829 69.8145 13.6213 69.7278 13.3375C69.6411 13.0537 69.6172 12.7544 69.6578 12.4604C69.6182 12.1655 69.6426 11.8656 69.7291 11.5809C69.8155 11.2962 69.9622 11.0335 70.159 10.8104C70.3559 10.5873 70.5984 10.4092 70.8701 10.2879C71.1418 10.1667 71.4364 10.1053 71.7339 10.1079C72.9868 10.1079 73.7427 10.9639 73.7427 12.3779V12.688H70.563V12.7378C70.5491 12.903 70.5699 13.0693 70.624 13.2261C70.6781 13.3828 70.7644 13.5265 70.8773 13.648C70.9902 13.7695 71.1272 13.866 71.2796 13.9314C71.432 13.9968 71.5964 14.0296 71.7622 14.0278C71.9748 14.0533 72.1902 14.015 72.3809 13.9178C72.5717 13.8206 72.7292 13.6688 72.8335 13.4819L73.689 13.4819ZM70.563 12.0307H72.8374C72.8486 11.8796 72.8281 11.7278 72.7771 11.5851C72.7262 11.4424 72.6459 11.3119 72.5415 11.202C72.4371 11.0922 72.3109 11.0054 72.171 10.9472C72.0311 10.889 71.8805 10.8608 71.729 10.8642C71.5753 10.8623 71.4228 10.8911 71.2804 10.9491C71.138 11.007 71.0087 11.0929 70.9 11.2016C70.7914 11.3103 70.7056 11.4397 70.6477 11.5821C70.5898 11.7245 70.561 11.877 70.563 12.0307Z" fill="white"/>
<path d="M74.9771 8.43701H75.8657V14.6978H74.9771V8.43701Z" fill="white"/>
<path d="M77.101 12.4443C77.0727 12.1484 77.1066 11.8498 77.2004 11.5677C77.2943 11.2857 77.446 11.0263 77.646 10.8063C77.8459 10.5864 78.0896 10.4106 78.3615 10.2903C78.6333 10.17 78.9273 10.1079 79.2246 10.1079C79.5219 10.1079 79.8158 10.17 80.0877 10.2903C80.3595 10.4106 80.6033 10.5864 80.8032 10.8063C81.0031 11.0263 81.1549 11.2857 81.2487 11.5677C81.3426 11.8498 81.3764 12.1484 81.3481 12.4443C81.377 12.7405 81.3435 13.0395 81.2499 13.322C81.1563 13.6045 81.0047 13.8644 80.8047 14.0848C80.6047 14.3052 80.3608 14.4813 80.0887 14.6019C79.8165 14.7224 79.5222 14.7847 79.2246 14.7847C78.927 14.7847 78.6326 14.7224 78.3605 14.6019C78.0884 14.4813 77.8445 14.3052 77.6445 14.0848C77.4445 13.8644 77.2928 13.6045 77.1992 13.322C77.1056 13.0395 77.0722 12.7405 77.101 12.4443ZM80.434 12.4443C80.434 11.4682 79.9956 10.8974 79.226 10.8974C78.4536 10.8974 78.019 11.4682 78.019 12.4443C78.019 13.4282 78.4536 13.9946 79.226 13.9946C79.9956 13.9946 80.434 13.4243 80.434 12.4443Z" fill="white"/>
<path d="M88.7915 13.4819C88.6707 13.8934 88.4092 14.2494 88.0525 14.4876C87.6958 14.7257 87.2667 14.8309 86.8403 14.7846C86.5436 14.7925 86.2488 14.7356 85.9763 14.6181C85.7038 14.5006 85.4602 14.3252 85.2623 14.104C85.0643 13.8829 84.9169 13.6213 84.8302 13.3375C84.7435 13.0537 84.7197 12.7544 84.7602 12.4604C84.7207 12.1655 84.745 11.8656 84.8315 11.5809C84.918 11.2962 85.0647 11.0335 85.2615 10.8104C85.4584 10.5873 85.7009 10.4092 85.9726 10.2879C86.2443 10.1667 86.5389 10.1053 86.8364 10.1079C88.0893 10.1079 88.8452 10.9639 88.8452 12.3779V12.688H85.6655V12.7378C85.6516 12.903 85.6724 13.0693 85.7265 13.2261C85.7806 13.3828 85.8669 13.5265 85.9798 13.648C86.0927 13.7695 86.2298 13.866 86.3821 13.9314C86.5345 13.9968 86.6989 14.0296 86.8647 14.0278C87.0773 14.0533 87.2927 14.015 87.4834 13.9178C87.6742 13.8206 87.8317 13.6688 87.936 13.4819L88.7915 13.4819ZM85.6655 12.0307H87.94C87.9512 11.8796 87.9306 11.7278 87.8797 11.5851C87.8287 11.4424 87.7485 11.3119 87.6441 11.202C87.5397 11.0922 87.4135 11.0054 87.2736 10.9472C87.1336 10.889 86.9831 10.8608 86.8316 10.8642C86.6779 10.8623 86.5253 10.8911 86.3829 10.9491C86.2406 11.007 86.1112 11.0929 86.0026 11.2016C85.8939 11.3103 85.8081 11.4397 85.7502 11.5821C85.6923 11.7245 85.6635 11.877 85.6655 12.0307Z" fill="white"/>
<path d="M90.0386 10.1949H90.894V10.9102H90.9605C91.0731 10.6533 91.2631 10.4379 91.504 10.2941C91.7449 10.1503 92.0246 10.0852 92.3042 10.1079C92.5233 10.0915 92.7433 10.1245 92.9479 10.2046C93.1525 10.2847 93.3365 10.4098 93.4861 10.5707C93.6358 10.7315 93.7474 10.924 93.8126 11.1338C93.8778 11.3436 93.895 11.5654 93.8628 11.7827V14.6977H92.9741V12.0059C92.9741 11.2823 92.6597 10.9224 92.0024 10.9224C91.8537 10.9155 91.7052 10.9408 91.5671 10.9966C91.4291 11.0525 91.3047 11.1375 91.2026 11.2459C91.1005 11.3543 91.023 11.4834 90.9755 11.6246C90.9279 11.7657 90.9115 11.9154 90.9272 12.0635V14.6978H90.0386V10.1949Z" fill="white"/>
<path d="M101.488 13.4819C101.367 13.8934 101.105 14.2494 100.749 14.4876C100.392 14.7257 99.963 14.8309 99.5366 14.7846C99.2399 14.7925 98.9451 14.7356 98.6726 14.6181C98.4001 14.5006 98.1565 14.3252 97.9586 14.104C97.7606 13.8829 97.6132 13.6213 97.5265 13.3375C97.4398 13.0537 97.4159 12.7544 97.4565 12.4604C97.417 12.1655 97.4413 11.8656 97.5278 11.5809C97.6143 11.2962 97.7609 11.0335 97.9578 10.8104C98.1547 10.5873 98.3972 10.4092 98.6689 10.2879C98.9406 10.1667 99.2352 10.1053 99.5327 10.1079C100.786 10.1079 101.541 10.9639 101.541 12.3779V12.688H98.3618V12.7378C98.3479 12.903 98.3687 13.0693 98.4228 13.2261C98.4769 13.3828 98.5632 13.5265 98.6761 13.648C98.789 13.7695 98.926 13.866 99.0784 13.9314C99.2308 13.9968 99.3952 14.0296 99.561 14.0278C99.7736 14.0533 99.989 14.015 100.18 13.9178C100.37 13.8206 100.528 13.6688 100.632 13.4819L101.488 13.4819ZM98.3618 12.0307H100.636C100.647 11.8796 100.627 11.7278 100.576 11.5851C100.525 11.4424 100.445 11.3119 100.34 11.202C100.236 11.0922 100.11 11.0054 99.9698 10.9472C99.8298 10.889 99.6793 10.8608 99.5278 10.8642C99.3741 10.8623 99.2216 10.8912 99.0792 10.9491C98.9368 11.007 98.8075 11.0929 98.6988 11.2016C98.5902 11.3103 98.5044 11.4397 98.4465 11.5821C98.3886 11.7245 98.3598 11.877 98.3618 12.0307Z" fill="white"/>
<path d="M102.776 8.43701H103.665V14.6978H102.776V8.43701Z" fill="white"/>
</g>
<defs>
<clipPath id="clip0_2869_11506">
<rect width="119.664" height="40" fill="white"/>
</clipPath>
</defs>
</svg>
