<svg width="135" height="40" viewBox="0 0 135 40" fill="none" xmlns="http://www.w3.org/2000/svg">
<g clip-path="url(#clip0_2869_11577)">
<path d="M130 0H5C2.23858 0 0 2.23858 0 5V35C0 37.7614 2.23858 40 5 40H130C132.761 40 135 37.7614 135 35V5C135 2.23858 132.761 0 130 0Z" fill="black"/>
<path d="M130 0.8C132.3 0.8 134.2 2.7 134.2 5V35C134.2 37.3 132.3 39.2 130 39.2H5C2.7 39.2 0.8 37.3 0.8 35V5C0.8 2.7 2.7 0.8 5 0.8H130ZM130 0H5C2.2 0 0 2.3 0 5V35C0 37.8 2.2 40 5 40H130C132.7 40 135 37.8 135 35V5C135 2.3 132.7 0 130 0Z" fill="#A6A6A6"/>
<path d="M68.1 21.8C65.7 21.8 63.8 23.6 63.8 26.1C63.8 28.6 65.7 30.4 68.1 30.4C70.5 30.4 72.4 28.6 72.4 26.1C72.4 23.6 70.5 21.8 68.1 21.8ZM68.1 28.6C66.8 28.6 65.7 27.5 65.7 26C65.7 24.5 66.8 23.4 68.1 23.4C69.4 23.4 70.5 24.4 70.5 26C70.5 27.6 69.4 28.6 68.1 28.6ZM58.8 21.8C56.4 21.8 54.5 23.6 54.5 26.1C54.5 28.6 56.4 30.4 58.8 30.4C61.2 30.4 63.1 28.6 63.1 26.1C63.1 23.6 61.2 21.8 58.8 21.8ZM58.8 28.6C57.5 28.6 56.4 27.5 56.4 26C56.4 24.5 57.5 23.4 58.8 23.4C60.1 23.4 61.2 24.4 61.2 26C61.2 27.6 60.1 28.6 58.8 28.6ZM47.7 23.1V24.9H52C52 25.9 51.5 26.7 51 27.2C50.5 27.7 49.4 28.5 47.7 28.5C45 28.5 43 26.4 43 23.7C43 21 45.1 18.9 47.7 18.9C50.3 18.9 50.2 19.5 51 20.2L52.3 18.9C51.2 17.9 49.8 17.1 47.8 17.1C44.2 17.1 41.1 20.1 41.1 23.7C41.1 27.3 44.2 30.3 47.8 30.3C51.4 30.3 51.2 29.7 52.4 28.4C53.6 27.2 54 25.5 54 24.2C54 22.9 54 23.4 54 23.1H47.7ZM93.1 24.5C92.7 23.5 91.7 21.8 89.5 21.8C87.3 21.8 85.5 23.5 85.5 26.1C85.5 28.7 87.3 30.4 89.7 30.4C92.1 30.4 92.8 29.2 93.2 28.5L91.8 27.5C91.3 28.2 90.7 28.7 89.7 28.7C88.7 28.7 88.1 28.3 87.6 27.4L93.3 25L93.1 24.5ZM87.3 25.9C87.3 24.3 88.6 23.4 89.5 23.4C90.4 23.4 90.9 23.8 91.1 24.3L87.3 25.9ZM82.6 30H84.5V17.5H82.6V30ZM79.6 22.7C79.2 22.2 78.4 21.7 77.4 21.7C75.3 21.7 73.3 23.6 73.3 26C73.3 28.4 75.2 30.2 77.4 30.2C79.6 30.2 79.2 29.7 79.6 29.2V29.8C79.6 31.4 78.7 32.3 77.3 32.3C75.9 32.3 75.4 31.5 75.2 30.8L73.6 31.5C74.1 32.6 75.3 34 77.4 34C79.5 34 81.4 32.7 81.4 29.6V22H79.6V22.7ZM77.4 28.6C76.1 28.6 75 27.5 75 26C75 24.5 76.1 23.4 77.4 23.4C78.7 23.4 79.7 24.5 79.7 26C79.7 27.5 78.7 28.6 77.4 28.6ZM101.8 17.5H97.3V30H99.2V25.3H101.8C103.9 25.3 105.9 23.8 105.9 21.4C105.9 19 103.9 17.5 101.8 17.5ZM101.9 23.5H99.2V19.2H101.9C103.3 19.2 104.1 20.4 104.1 21.3C104.1 22.2 103.3 23.4 101.9 23.4V23.5ZM113.4 21.7C112 21.7 110.6 22.3 110.1 23.6L111.8 24.3C112.2 23.6 112.8 23.4 113.5 23.4C114.2 23.4 115.4 24 115.5 25C115.2 25 114.4 24.6 113.6 24.6C111.8 24.6 110 25.6 110 27.4C110 29.2 111.5 30.2 113.1 30.2C114.7 30.2 115 29.6 115.5 29V30H117.3V25.2C117.3 23 115.6 21.7 113.5 21.7H113.4ZM113.2 28.6C112.6 28.6 111.7 28.3 111.7 27.5C111.7 26.7 112.8 26.2 113.7 26.2C114.6 26.2 114.9 26.4 115.4 26.6C115.4 27.8 114.3 28.6 113.2 28.6ZM123.7 22L121.6 27.4L119.4 22H117.4L120.7 29.6L118.8 33.8H120.7L125.8 22H123.7ZM106.9 30H108.8V17.5H106.9V30Z" fill="white"/>
<path d="M20.7 19.3999L10.1 30.6999C10.4 31.8999 11.5 32.7999 12.9 32.7999C14.3 32.7999 13.9 32.7999 14.4 32.3999L26.4 25.4999L20.8 19.3999H20.7Z" fill="#EA4335"/>
<path d="M31.5 17.5L26.3 14.5L20.5 19.7L26.3 25.5L31.4 22.5C32.3 22 32.9 21.1 32.9 20C32.9 18.9 32.3 18 31.4 17.5H31.5Z" fill="#FBBC04"/>
<path d="M10.1 9.29993V30.6999L21.1 19.6999L10.1 9.29993Z" fill="#4285F4"/>
<path d="M20.8 20L26.3 14.5L14.3 7.59995C13.9 7.29995 13.4 7.19995 12.8 7.19995C11.5 7.19995 10.3 8.09995 10 9.29995L20.7 20H20.8Z" fill="#34A853"/>
<path d="M41.8 6.90002H43.8C44.4 6.90002 45 7.00002 45.5 7.30002C46 7.60002 46.3 7.90002 46.6 8.40002C46.9 8.90002 47 9.40002 47 10C47 10.6 46.9 11.1 46.6 11.6C46.3 12.1 46 12.4 45.5 12.7C45 13 44.5 13.1 43.8 13.1H41.8V6.90002ZM43.8 12.2C44.5 12.2 45 12 45.4 11.6C45.8 11.2 46 10.7 46 10C46 9.30002 45.8 8.80002 45.4 8.40002C45 8.00002 44.5 7.80002 43.8 7.80002H42.8V12.1H43.8V12.2Z" fill="white"/>
<path d="M48 6.90005H51.7V7.80005H48.9V9.50005H51.4V10.4H48.9V12.1H51.7V13H48V6.80005V6.90005Z" fill="white"/>
<path d="M53.4 12.8C53 12.5 52.7 12.1 52.6 11.5L53.5 11.1C53.5 11.4 53.8 11.7 54 11.9C54.2 12.1 54.5 12.2 54.8 12.2C55.1 12.2 55.4 12.2 55.6 12C55.8 11.8 55.9 11.6 55.9 11.4C55.9 11.2 55.9 10.9 55.6 10.8C55.4 10.6 55.1 10.5 54.6 10.3H54.2C53.8 10 53.4 9.80005 53.2 9.50005C53 9.20005 52.8 8.90005 52.8 8.40005C52.8 7.90005 52.8 7.80005 53 7.60005C53.2 7.30005 53.4 7.10005 53.7 7.00005C54 6.80005 54.3 6.80005 54.7 6.80005C55.2 6.80005 55.7 6.90005 56 7.20005C56.3 7.50005 56.5 7.80005 56.6 8.10005L55.7 8.50005C55.7 8.30005 55.5 8.10005 55.3 8.00005C55.1 7.90005 54.9 7.80005 54.6 7.80005C54.3 7.80005 54.1 7.80005 53.9 8.00005C53.7 8.10005 53.6 8.30005 53.6 8.50005C53.6 8.70005 53.6 8.90005 53.9 9.00005C54.2 9.10005 54.3 9.30005 54.7 9.40005H55.1C55.6 9.70005 56 10 56.3 10.2C56.6 10.4 56.7 10.9 56.7 11.4C56.7 11.9 56.6 12.1 56.4 12.4C56.2 12.7 55.9 12.9 55.6 13C55.3 13.1 55 13.2 54.6 13.2C54.1 13.2 53.6 13.1 53.2 12.8H53.4Z" fill="white"/>
<path d="M59.2 12.8C58.7 12.5 58.3 12.1 58 11.6C57.7 11.1 57.6 10.6 57.6 10C57.6 9.40005 57.7 8.90005 58 8.40005C58.3 7.90005 58.7 7.50005 59.2 7.20005C59.7 6.90005 60.2 6.80005 60.8 6.80005C61.4 6.80005 61.7 6.80005 62.1 7.10005C62.5 7.40005 62.8 7.50005 63.1 7.80005L62.4 8.50005C62.2 8.20005 62 8.10005 61.7 7.90005C61.4 7.80005 61.1 7.70005 60.8 7.70005C60.5 7.70005 60 7.70005 59.7 8.00005C59.4 8.20005 59.1 8.50005 58.9 8.80005C58.7 9.10005 58.6 9.60005 58.6 10C58.6 10.4 58.7 10.9 58.9 11.2C59.1 11.5 59.4 11.8 59.7 12C60 12.2 60.4 12.3 60.8 12.3C61.5 12.3 62.1 12 62.6 11.4L63.3 12.1C63 12.4 62.6 12.7 62.2 12.9C61.8 13.1 61.3 13.2 60.8 13.2C60.3 13.2 59.7 13.1 59.2 12.8Z" fill="white"/>
<path d="M66.1 6.90002H67.2L69.5 13.1H68.4L67.9 11.5H65.4L64.8 13.1H63.7L66 6.90002H66.1ZM67.6 10.6L66.9 8.80002L66.7 8.10002L66.5 8.80002L65.8 10.6H67.6Z" fill="white"/>
<path d="M70.3 6.90005H72.5C72.9 6.90005 73.2 6.90005 73.5 7.10005C73.8 7.30005 74 7.50005 74.2 7.80005C74.4 8.10005 74.5 8.40005 74.5 8.80005C74.5 9.20005 74.4 9.60005 74.1 9.90005C73.8 10.2 73.5 10.4 73.1 10.5L74.8 13H73.7L72.1 10.6H71.4V13H70.4V6.80005L70.3 6.90005ZM72.5 9.80005C72.8 9.80005 73 9.80005 73.2 9.50005C73.4 9.30005 73.5 9.10005 73.5 8.80005C73.5 8.50005 73.5 8.50005 73.4 8.30005C73.3 8.10005 73.2 8.00005 73.1 7.90005C73 7.90005 72.8 7.80005 72.6 7.80005H71.4V9.80005H72.6H72.5Z" fill="white"/>
<path d="M76.9 12.8C76.4 12.5 76 12.1 75.7 11.6C75.4 11.1 75.3 10.6 75.3 10C75.3 9.40005 75.4 8.90005 75.7 8.40005C76 7.90005 76.4 7.50005 76.9 7.20005C77.4 6.90005 77.9 6.80005 78.5 6.80005C79.1 6.80005 79.4 6.80005 79.8 7.00005C80.2 7.20005 80.5 7.40005 80.8 7.70005L80.1 8.40005C79.9 8.20005 79.7 8.00005 79.4 7.90005C79.1 7.80005 78.8 7.70005 78.5 7.70005C78.2 7.70005 77.7 7.70005 77.4 8.00005C77.1 8.20005 76.8 8.50005 76.6 8.80005C76.4 9.20005 76.3 9.60005 76.3 10C76.3 10.4 76.4 10.9 76.6 11.2C76.8 11.5 77.1 11.8 77.4 12C77.7 12.2 78.1 12.3 78.5 12.3C78.9 12.3 79.2 12.3 79.4 12.1C79.6 12 79.9 11.8 80.1 11.7C80.2 11.6 80.3 11.4 80.4 11.2C80.5 11 80.5 10.8 80.6 10.6H78.5V9.70005H81.5C81.5 9.90005 81.5 10 81.5 10.2C81.5 10.6 81.5 11 81.3 11.3C81.2 11.7 81 12 80.7 12.2C80.1 12.8 79.4 13.1 78.4 13.1C77.4 13.1 77.3 13 76.8 12.7L76.9 12.8Z" fill="white"/>
<path d="M84.3 6.90002H85.4L87.7 13.1H86.6L86.1 11.5H83.6L83 13.1H81.9L84.2 6.90002H84.3ZM85.8 10.6L85.1 8.80002L84.9 8.10002L84.7 8.80002L84 10.6H85.8Z" fill="white"/>
<path d="M88.6 6.90005H90.8C91.2 6.90005 91.5 6.90005 91.8 7.10005C92.1 7.30005 92.3 7.50005 92.5 7.80005C92.7 8.10005 92.8 8.40005 92.8 8.80005C92.8 9.20005 92.7 9.60005 92.4 9.90005C92.1 10.2 91.8 10.4 91.4 10.5L93.1 13H92L90.4 10.6H89.7V13H88.7V6.80005L88.6 6.90005ZM90.7 9.80005C91 9.80005 91.2 9.80005 91.4 9.50005C91.6 9.30005 91.7 9.10005 91.7 8.80005C91.7 8.50005 91.7 8.50005 91.6 8.30005C91.6 8.20005 91.4 8.00005 91.3 7.90005C91.2 7.90005 91 7.80005 90.8 7.80005H89.6V9.80005H90.8H90.7Z" fill="white"/>
<path d="M95.8 6.90005H99.5V7.80005H96.7V9.50005H99.2V10.4H96.7V12.1H99.5V13H95.8V6.80005V6.90005Z" fill="white"/>
<path d="M100.8 6.90002H101.9L104.7 11.4V10.2V6.90002H105.7V13.1H104.7L101.8 8.40002V9.60002V13.1H100.8V6.90002Z" fill="white"/>
</g>
<defs>
<clipPath id="clip0_2869_11577">
<rect width="135" height="40" fill="white"/>
</clipPath>
</defs>
</svg>
