<svg width="136" height="40" viewBox="0 0 136 40" fill="none" xmlns="http://www.w3.org/2000/svg">
<g clip-path="url(#clip0_2869_11452)">
<path d="M130.815 40.0003H5.03401C2.26676 40.0003 0.00268555 37.7504 0.00268555 35.0004V5.001C0.00268555 2.25104 2.26676 0.00109863 5.03401 0.00109863H130.815C133.582 0.00109863 135.846 2.25104 135.846 5.001V35.0004C135.846 37.7504 133.582 40.0003 130.815 40.0003Z" fill="#100F0D"/>
<path d="M130.815 0.00109863H5.03401C2.26676 0.00109863 0.00268555 2.25104 0.00268555 5.001V35.0004C0.00268555 37.7504 2.26676 40.0003 5.03401 40.0003H130.815C133.582 40.0003 135.846 37.7504 135.846 35.0004V5.001C135.846 2.25104 133.582 0.00109863 130.815 0.00109863ZM130.815 0.800679C133.146 0.800679 135.041 2.68507 135.041 5.001V35.0004C135.041 37.3164 133.146 39.2008 130.815 39.2008H5.03401C2.70352 39.2008 0.80812 37.3164 0.80812 35.0004V5.001C0.80812 2.68507 2.70352 0.800679 5.03401 0.800679H130.815Z" fill="#A2A2A1"/>
<path d="M107.608 30.0008H109.485V17.499H107.608V30.0008ZM124.52 22.0027L122.368 27.4226H122.303L120.069 22.0027H118.047L121.398 29.5778L119.487 33.7917H121.445L126.608 22.0031L124.52 22.0027ZM113.871 28.5807C113.257 28.5807 112.399 28.2748 112.399 27.519C112.399 26.5541 113.467 26.1842 114.389 26.1842C115.214 26.1842 115.604 26.3608 116.105 26.6022C115.959 27.7604 114.956 28.5807 113.871 28.5807ZM114.098 21.7293C112.739 21.7293 111.331 22.3246 110.748 23.6434L112.415 24.3347C112.771 23.6434 113.434 23.4184 114.131 23.4184C115.102 23.4184 116.089 23.9969 116.105 25.0266V25.1551C115.765 24.9621 115.036 24.6727 114.147 24.6727C112.349 24.6727 110.521 25.6534 110.521 27.487C110.521 29.1596 111.994 30.2373 113.645 30.2373C114.906 30.2373 115.604 29.6744 116.039 29.0147H116.105V29.9803H117.918V25.187C117.918 22.9675 116.25 21.7293 114.098 21.7293ZM102.494 23.5246H99.8232V19.2396H102.494C103.898 19.2396 104.695 20.3943 104.695 21.382C104.695 22.3508 103.898 23.5246 102.494 23.5246ZM102.446 17.4993H97.9464V30.0011H99.8233V25.2649H102.446C104.527 25.2649 106.572 23.768 106.572 21.3825C106.572 18.9974 104.527 17.4993 102.446 17.4993ZM77.912 28.5828C76.6148 28.5828 75.5291 27.5031 75.5291 26.0216C75.5291 24.5227 76.6148 23.4278 77.912 23.4278C79.1926 23.4278 80.1977 24.5228 80.1977 26.0216C80.1977 27.5031 79.1926 28.5828 77.912 28.5828ZM80.068 22.7026H80.0031C79.5817 22.2033 78.7708 21.7522 77.75 21.7522C75.6097 21.7522 73.6483 23.6212 73.6483 26.0216C73.6483 28.4055 75.6097 30.2582 77.75 30.2582C78.7708 30.2582 79.5817 29.807 80.0031 29.2918H80.068V29.9035C80.068 31.5312 79.1926 32.4007 77.7822 32.4007C76.6317 32.4007 75.9183 31.5792 75.6262 30.8866L73.9892 31.5631C74.4589 32.6904 75.7068 34.0764 77.7823 34.0764C79.9874 34.0764 81.8517 32.7873 81.8517 29.6456V22.0098H80.068L80.068 22.7026ZM83.1489 30.0004H85.0286V17.4986H83.1489V30.0004ZM87.8009 25.8763C87.7526 24.2329 89.0823 23.3954 90.0383 23.3954C90.7843 23.3954 91.416 23.7661 91.6275 24.2974L87.8009 25.8763ZM93.6369 24.4583C93.2804 23.5084 92.1943 21.7522 89.9734 21.7522C87.7683 21.7522 85.9366 23.4759 85.9366 26.0052C85.9366 28.3895 87.7526 30.2583 90.1837 30.2583C92.1452 30.2583 93.2804 29.0665 93.7508 28.3735L92.2917 27.4067C91.8052 28.1157 91.1409 28.5829 90.1837 28.5829C89.2278 28.5829 88.5466 28.1478 88.1096 27.2939L93.8314 24.942L93.6369 24.4583ZM48.0452 23.0572V24.8614H52.3897C52.26 25.8764 51.9196 26.6173 51.4007 27.1329C50.7683 27.761 49.7794 28.454 48.0451 28.454C45.3702 28.454 43.2791 26.3114 43.2791 23.6533C43.2791 20.9951 45.3702 18.8523 48.0451 18.8523C49.488 18.8523 50.5415 19.4162 51.3197 20.1412L52.6007 18.8682C51.5142 17.8374 50.0717 17.048 48.0451 17.048C44.3808 17.048 41.3007 20.0123 41.3007 23.6533C41.3007 27.2939 44.3808 30.2583 48.0451 30.2583C50.0226 30.2583 51.5143 29.6138 52.6813 28.4056C53.881 27.2134 54.254 25.538 54.254 24.1846C54.254 23.7662 54.2213 23.3795 54.1565 23.0572H48.0452ZM59.1939 28.5828C57.8966 28.5828 56.778 27.5195 56.778 26.0052C56.778 24.4747 57.8966 23.4279 59.1939 23.4279C60.4905 23.4279 61.6092 24.4747 61.6092 26.0052C61.6092 27.5195 60.4905 28.5828 59.1939 28.5828ZM59.1939 21.7522C56.8263 21.7522 54.8975 23.5403 54.8975 26.0052C54.8975 28.454 56.8263 30.2583 59.1939 30.2583C61.5605 30.2583 63.4897 28.454 63.4897 26.0052C63.4897 23.5403 61.5605 21.7522 59.1939 21.7522ZM68.5652 28.5828C67.2689 28.5828 66.1498 27.5195 66.1498 26.0052C66.1498 24.4747 67.2689 23.4279 68.5652 23.4279C69.8624 23.4279 70.9806 24.4747 70.9806 26.0052C70.9806 27.5195 69.8624 28.5828 68.5652 28.5828ZM68.5652 21.7522C66.1985 21.7522 64.2697 23.5403 64.2697 26.0052C64.2697 28.454 66.1985 30.2583 68.5652 30.2583C70.9327 30.2583 72.8615 28.454 72.8615 26.0052C72.8615 23.5403 70.9327 21.7522 68.5652 21.7522Z" fill="white"/>
<path d="M20.8469 19.4242L10.1344 30.7238C10.1348 30.7261 10.1356 30.7281 10.136 30.7305C10.4645 31.9575 11.5923 32.8609 12.9307 32.8609C13.4657 32.8609 13.9681 32.7172 14.3989 32.4648L14.4331 32.4449L26.4919 25.5299L20.8469 19.4242Z" fill="#EB3131"/>
<path d="M31.6853 17.5006L31.6751 17.4937L26.4689 14.4944L20.6035 19.6811L26.4893 25.5294L31.668 22.56C32.5759 22.0729 33.1923 21.1217 33.1923 20.0248C33.1923 18.9358 32.5843 17.9893 31.6853 17.5006Z" fill="#F6B60B"/>
<path d="M10.1329 9.27795C10.0685 9.51395 10.0347 9.76114 10.0347 10.0178V29.9852C10.0347 30.2414 10.0681 30.4895 10.1333 30.7246L21.2156 19.7138L10.1329 9.27795Z" fill="#5778C5"/>
<path d="M20.9262 20.0006L26.4713 14.4917L14.4261 7.55162C13.9882 7.29102 13.4772 7.14062 12.9304 7.14062C11.592 7.14062 10.4627 8.04573 10.1341 9.27416C10.1337 9.27536 10.1337 9.27619 10.1337 9.27724L20.9262 20.0006Z" fill="#3BAD49"/>
<path d="M47.6929 9.78126H44.7574V10.5031H46.9571C46.8974 11.0922 46.6615 11.5547 46.2637 11.8907C45.866 12.2266 45.3581 12.3953 44.7575 12.3953C44.0987 12.3953 43.5405 12.1672 43.083 11.7142C42.6349 11.2517 42.4069 10.6798 42.4069 9.99073C42.4069 9.30174 42.6349 8.72982 43.083 8.26737C43.5405 7.81427 44.0987 7.58768 44.7575 7.58768C45.0956 7.58768 45.4179 7.64549 45.7134 7.77208C46.009 7.89857 46.2464 8.07517 46.432 8.30177L46.9901 7.74708C46.737 7.46109 46.4163 7.24239 46.0184 7.083C45.6206 6.9236 45.2055 6.8471 44.7574 6.8471C43.8785 6.8471 43.1333 7.15019 42.5248 7.7549C41.9163 8.3611 41.6113 9.10799 41.6113 9.99074C41.6113 10.8735 41.9163 11.622 42.5248 12.2267C43.1333 12.8313 43.8785 13.1345 44.7574 13.1345C45.6803 13.1345 46.4162 12.8407 46.9822 12.2438C47.4806 11.747 47.7353 11.0752 47.7353 10.2346C47.7353 10.0924 47.7181 9.94066 47.6929 9.78126ZM48.8301 6.98134V13.0001H52.3661V12.261H49.6084V10.3517H52.0958V9.6298H49.6084V7.72201H52.3661V6.98132L48.8301 6.98134ZM57.3245 7.72203V6.98134H53.1626V7.72203H54.8544V13H55.6327V7.72203H57.3245ZM61.0924 6.98134H60.3141V13.0001H61.0924V6.98134ZM66.2294 7.72203V6.98134H62.0676V7.72203H63.7593V13H64.5376V7.72203H66.2294ZM74.083 7.76423C73.4824 7.15015 72.7466 6.84705 71.8676 6.84705C70.9872 6.84705 70.2514 7.15014 69.6507 7.75485C69.0501 8.35174 68.7546 9.10014 68.7546 9.99069C68.7546 10.8812 69.0501 11.6298 69.6507 12.2267C70.2514 12.8313 70.9872 13.1345 71.8676 13.1345C72.7387 13.1345 73.4824 12.8313 74.083 12.2267C74.6837 11.6298 74.9792 10.8813 74.9792 9.99069C74.9792 9.10794 74.6836 8.36101 74.083 7.76423ZM70.2089 8.26732C70.657 7.81422 71.2073 7.58763 71.8676 7.58763C72.5264 7.58763 73.0768 7.81423 73.517 8.26732C73.9651 8.71261 74.1852 9.29377 74.1852 9.99068C74.1852 10.6892 73.9651 11.2688 73.517 11.7141C73.0768 12.1672 72.5264 12.3953 71.8676 12.3953C71.2073 12.3953 70.657 12.1672 70.2089 11.7141C69.7702 11.2594 69.5501 10.6892 69.5501 9.99068C69.5501 9.29379 69.7702 8.72197 70.2089 8.26732ZM76.8282 9.2517L76.7953 8.09069H76.8282L79.9068 13H80.7196V6.98128H79.9414V10.5031L79.9743 11.6641H79.9414L76.9981 6.98128H76.05V13H76.8282V9.2517Z" fill="white" stroke="white" stroke-width="0.201253" stroke-miterlimit="10"/>
</g>
<defs>
<clipPath id="clip0_2869_11452">
<rect width="135.849" height="40" fill="white"/>
</clipPath>
</defs>
</svg>
